<svg class="header__logo--desktop" width="86px" height="21px" viewBox="0 0 86 21" version="1.1" xmlns="http://www.w3.org/2000/svg" xmlns:xlink="http://www.w3.org/1999/xlink">
                <g id="syfy" fill="black" stroke="none">
                  <path id="syfylogo-s" d="M32.8098437,0 C32.6235518,0.187147059 32.5190316,0.291941176 32.3327398,0.479088235 L32.3327398,10.4442059 L30.2318843,10.4442059 L30.2318843,0.479088235 C30.0453875,0.291941176 29.9408673,0.187147059 29.7545755,0 L21.499531,0 C21.3130342,0.187147059 21.2085141,0.291941176 21.0222222,0.479088235 L21.0222222,10.5399412 L26.6775835,16.2671765 L26.6775835,20.5067059 C26.8638753,20.6938529 26.9683955,20.7986471 27.1546873,20.9857941 L35.4099367,20.9857941 C35.5962286,20.7986471 35.7005438,20.6938529 35.8870406,20.5067059 L35.8870406,16.2179706 L41.6374947,10.4442059 L41.6374947,0.479088235 C41.4514078,0.291941176 41.3468876,0.187147059 41.1603908,0 L32.8098437,0 Z"></path>
                  <path id="syfylogo-y" d="M76.7656042,0 C76.5791074,0.187147059 76.4747921,0.291941176 76.2885003,0.479088235 L76.2885003,10.4442059 L74.1874398,10.4442059 L74.1874398,0.479088235 C74.001148,0.291941176 73.8966278,0.187147059 73.710336,0 L65.4550866,0 C65.2687947,0.187147059 65.1642746,0.291941176 64.9777778,0.479088235 L64.9777778,10.5399412 L70.633139,16.2671765 L70.633139,20.5067059 C70.8194309,20.6938529 70.924156,20.7986471 71.1104478,20.9857941 L79.3654923,20.9857941 C79.5517841,20.7986471 79.6565092,20.6938529 79.8425961,20.5067059 L79.8425961,16.2179706 L85.5932552,10.4442059 L85.5932552,0.479088235 C85.4069634,0.291941176 85.3026481,0.187147059 85.1161513,0 L76.7656042,0 Z"></path>
                  <path id="syfylogo-f" d="M18.3238213,0 L4.17547854,0 L0,4.19217647 L0,9.96655882 C0.186496784,10.1537059 0.291016959,10.2587059 0.477308801,10.4442059 L9.4004626,10.4442059 L9.4004626,12.5042647 L0.47710386,12.5042647 C0.290812018,12.6914118 0.186291842,12.7964118 0,12.9835588 L0,20.5065 C0.186291842,20.6938529 0.290812018,20.7986471 0.47710386,20.9855882 L14.6256516,20.9855882 L18.8009252,16.7936176 L18.8009252,10.9232941 C18.6146334,10.7363529 18.5101132,10.6313529 18.3236164,10.4442059 L9.40066754,10.4442059 L9.40066754,8.38414706 L18.3238213,8.38414706 C18.5101132,8.197 18.6146334,8.09220588 18.8009252,7.90505882 L18.8009252,0.479088235 C18.6146334,0.291941176 18.5101132,0.187147059 18.3238213,0"></path>
                  <path id="syfylogo-y2" d="M48.1308292,0 L43.9555556,4.19217647 L43.9555556,20.5065 C44.1418474,20.6936471 44.2465725,20.7986471 44.4326594,20.9857941 L52.6879088,20.9857941 C52.8742006,20.7986471 52.9787208,20.6936471 53.1650127,20.5065 L53.1650127,17.7038235 L62.279172,17.7038235 C62.4654638,17.5168824 62.569984,17.4118824 62.7564808,17.2247353 L62.7564808,10.9232941 C62.569984,10.7363529 62.4654638,10.6313529 62.279172,10.4442059 L53.1650127,10.4442059 L53.1650127,8.38414706 L62.279172,8.38414706 C62.4654638,8.197 62.569984,8.09220588 62.7564808,7.90505882 L62.7564808,0.479088235 C62.569984,0.291941176 62.4654638,0.187147059 62.279172,0 L48.1308292,0 Z"></path>
                </g>
                </svg>